<svg version="1.0" xmlns="http://www.w3.org/2000/svg" viewBox="0 0 97.000000 113.000000">
    <g transform="translate(0.000000,113.000000) scale(0.100000,-0.100000)" fill="#384861" stroke="none">
        <path d="M10 750 c0 -422 1 -433 67 -523 63 -86 180 -158 337 -206 66 -20 71
-21 130 -5 111 30 240 99 306 163 107 105 105 92 108 554 l3 397 -476 0 -475
0 0 -380z m938 -22 l-3 -383 -28 -57 c-52 -106 -201 -210 -369 -257 -66 -19
-68 -19 -130 0 -172 53 -316 156 -369 264 l-24 50 -3 383 -3 382 466 0 466 0
-3 -382z"/>
        <path d="M393 959 c-25 -7 -33 -15 -33 -32 0 -32 -60 -62 -81 -42 -12 12 -19
9 -47 -16 -28 -25 -31 -33 -21 -45 19 -23 -18 -84 -52 -84 -21 0 -28 -7 -37
-37 -12 -40 -9 -53 14 -53 10 0 14 -12 14 -44 0 -33 -5 -47 -21 -58 -19 -12
-21 -20 -15 -51 6 -30 11 -37 31 -37 23 0 55 -32 55 -56 0 -6 -10 -15 -21 -20
l-22 -10 26 -29 c23 -26 28 -28 46 -18 18 11 27 9 66 -19 29 -21 45 -39 45
-53 0 -31 69 -53 88 -28 16 22 81 19 99 -4 9 -11 22 -13 53 -8 35 6 41 10 37
26 -7 27 67 66 89 48 13 -10 21 -7 46 19 26 25 29 34 19 45 -17 22 23 87 54
87 16 0 25 7 29 24 3 13 9 31 12 39 3 10 -2 18 -15 22 -18 6 -21 14 -21 70 0
49 4 66 16 73 24 14 5 67 -24 67 -32 0 -56 39 -42 66 10 17 8 25 -12 47 -12
15 -24 28 -25 30 0 2 -9 -2 -20 -8 -26 -17 -93 22 -86 49 4 15 -4 22 -33 31
-32 11 -39 10 -49 -4 -18 -24 -91 -22 -105 4 -12 22 -12 22 -57 9z m51 -23
c17 -21 104 -27 115 -8 12 21 61 8 61 -16 0 -27 77 -75 100 -62 25 13 59 -24
43 -48 -16 -25 22 -92 51 -89 12 1 22 -5 24 -14 2 -11 -15 -27 -53 -48 -56
-32 -71 -48 -35 -36 18 6 20 2 20 -33 0 -96 -72 -205 -165 -248 -70 -33 -161
-33 -232 1 -29 13 -53 29 -53 35 0 14 13 13 28 -2 14 -14 16 1 2 22 -10 16
-12 15 -106 -41 -28 -17 -33 -17 -44 -4 -10 13 -10 19 4 33 15 17 14 21 -4 60
-16 32 -26 42 -44 42 -32 0 -43 39 -17 60 12 9 21 33 24 62 4 38 1 50 -14 60
-27 19 -15 58 17 58 14 0 27 7 31 18 4 9 15 28 24 41 14 18 16 28 8 42 -8 16
-6 24 13 39 19 15 25 16 36 6 12 -11 21 -9 58 11 27 15 44 32 44 43 0 29 45
40 64 16z"/>
        <path d="M399 850 c-95 -29 -172 -125 -185 -233 -7 -57 12 -144 39 -181 14
-19 16 -19 41 -3 27 18 32 41 18 87 -6 21 -8 17 -12 -24 -6 -64 -25 -69 -50
-14 -45 99 -14 240 68 308 75 61 200 77 283 35 66 -33 150 -133 120 -143 -6
-2 -11 -8 -11 -13 0 -6 8 -5 20 1 20 11 20 11 1 48 -46 89 -137 142 -241 141
-36 0 -77 -4 -91 -9z"/>
        <path d="M400 774 c0 -28 34 -74 53 -74 19 0 3 50 -23 75 l-30 29 0 -30z"/>
        <path d="M515 786 c-22 -7 -39 -15 -37 -19 1 -4 2 -27 2 -51 0 -38 4 -48 29
-65 25 -18 36 -20 87 -12 33 5 51 9 42 10 -10 0 -18 8 -18 17 0 11 -6 14 -22
9 -13 -4 -27 -11 -33 -16 -5 -5 -13 -9 -17 -9 -12 0 -10 28 3 32 6 2 9 26 7
59 l-3 56 -40 -11z"/>
        <path d="M401 636 c2 -79 -7 -120 -18 -88 -5 14 -63 17 -63 3 0 -24 21 -61 34
-61 18 0 96 92 96 113 0 9 9 22 20 30 20 14 19 15 -25 52 l-46 37 2 -86z"/>
        <path d="M663 634 c-3 -8 -1 -20 5 -26 16 -16 42 -2 42 22 0 24 -38 28 -47 4z"/>
        <path d="M473 604 c-3 -8 -1 -20 5 -26 16 -16 42 -2 42 22 0 24 -38 28 -47 4z"/>
        <path d="M535 567 c-4 -13 -5 -46 -2 -73 3 -47 3 -46 5 14 1 34 7 62 12 62 6
0 10 -45 10 -116 0 -102 2 -115 16 -110 9 3 20 6 25 6 5 0 9 52 9 115 0 146
18 154 22 10 l3 -106 33 30 c29 27 32 35 32 89 0 59 -1 60 -32 72 -30 11 -31
13 -13 20 14 6 -1 9 -47 9 -63 1 -68 -1 -73 -22z"/>
        <path d="M449 511 c-29 -34 -33 -46 -35 -102 -1 -39 3 -67 10 -71 6 -4 30 -8
54 -8 l42 0 0 58 c0 52 -2 59 -32 84 -18 14 -30 30 -25 34 4 4 16 -1 27 -11
20 -18 20 -18 20 18 0 49 -20 48 -61 -2z"/>
        <path d="M337 457 c-8 -21 8 -39 29 -35 27 5 25 42 -2 46 -12 2 -24 -3 -27
-11z"/>
        <path d="M381 401 c-9 -6 -11 -16 -6 -31 7 -21 8 -21 17 -6 13 24 6 48 -11 37z"/>
    </g>
</svg>
