<svg version="1.0" xmlns="http://www.w3.org/2000/svg" viewBox="0 0 424.000000 119.000000">
<g transform="translate(0.000000,119.000000) scale(0.100000,-0.100000)" fill="#010101" stroke="none">
<path fill="#384861" d="M50 770 c0 -422 1 -433 67 -523 63 -86 180 -158 337 -206 66 -20 71
-21 130 -5 111 30 240 99 306 163 107 105 105 92 108 554 l3 397 -476 0 -475
0 0 -380z m938 -22 l-3 -383 -28 -57 c-52 -106 -201 -210 -369 -257 -66 -19
-68 -19 -130 0 -172 53 -316 156 -369 264 l-24 50 -3 383 -3 382 466 0 466 0
-3 -382z"/>
<path fill="#384861" d="M433 979 c-25 -7 -33 -15 -33 -32 0 -32 -60 -62 -81 -42 -12 12 -19
9 -47 -16 -28 -25 -31 -33 -21 -45 19 -23 -18 -84 -52 -84 -21 0 -28 -7 -37
-37 -12 -40 -9 -53 14 -53 10 0 14 -12 14 -44 0 -33 -5 -47 -21 -58 -19 -12
-21 -20 -15 -51 6 -30 11 -37 31 -37 23 0 55 -32 55 -56 0 -6 -10 -15 -21 -20
l-22 -10 26 -29 c23 -26 28 -28 46 -18 18 11 27 9 66 -19 29 -21 45 -39 45
-53 0 -31 69 -53 88 -28 16 22 81 19 99 -4 9 -11 22 -13 53 -8 35 6 41 10 37
26 -7 27 67 66 89 48 13 -10 21 -7 46 19 26 25 29 34 19 45 -17 22 23 87 54
87 16 0 25 7 29 24 3 13 9 31 12 39 3 10 -2 18 -15 22 -18 6 -21 14 -21 70 0
49 4 66 16 73 24 14 5 67 -24 67 -32 0 -56 39 -42 66 10 17 8 25 -12 47 -12
15 -24 28 -25 30 0 2 -9 -2 -20 -8 -26 -17 -93 22 -86 49 4 15 -4 22 -33 31
-32 11 -39 10 -49 -4 -18 -24 -91 -22 -105 4 -12 22 -12 22 -57 9z m51 -23
c17 -21 104 -27 115 -8 12 21 61 8 61 -16 0 -27 77 -75 100 -62 25 13 59 -24
43 -48 -16 -25 22 -92 51 -89 12 1 22 -5 24 -14 2 -11 -15 -27 -53 -48 -56
-32 -71 -48 -35 -36 18 6 20 2 20 -33 0 -96 -72 -205 -165 -248 -70 -33 -161
-33 -232 1 -29 13 -53 29 -53 35 0 14 13 13 28 -2 14 -14 16 1 2 22 -10 16
-12 15 -106 -41 -28 -17 -33 -17 -44 -4 -10 13 -10 19 4 33 15 17 14 21 -4 60
-16 32 -26 42 -44 42 -32 0 -43 39 -17 60 12 9 21 33 24 62 4 38 1 50 -14 60
-27 19 -15 58 17 58 14 0 27 7 31 18 4 9 15 28 24 41 14 18 16 28 8 42 -8 16
-6 24 13 39 19 15 25 16 36 6 12 -11 21 -9 58 11 27 15 44 32 44 43 0 29 45
40 64 16z"/>
<path fill="#384861" d="M439 870 c-95 -29 -172 -125 -185 -233 -7 -57 12 -144 39 -181 14
-19 16 -19 41 -3 27 18 32 41 18 87 -6 21 -8 17 -12 -24 -6 -64 -25 -69 -50
-14 -45 99 -14 240 68 308 75 61 200 77 283 35 66 -33 150 -133 120 -143 -6
-2 -11 -8 -11 -13 0 -6 8 -5 20 1 20 11 20 11 1 48 -46 89 -137 142 -241 141
-36 0 -77 -4 -91 -9z"/>
<path fill="#384861" d="M440 794 c0 -28 34 -74 53 -74 19 0 3 50 -23 75 l-30 29 0 -30z"/>
<path fill="#384861" d="M555 806 c-22 -7 -39 -15 -37 -19 1 -4 2 -27 2 -51 0 -38 4 -48 29
-65 25 -18 36 -20 87 -12 33 5 51 9 42 10 -10 0 -18 8 -18 17 0 11 -6 14 -22
9 -13 -4 -27 -11 -33 -16 -5 -5 -13 -9 -17 -9 -12 0 -10 28 3 32 6 2 9 26 7
59 l-3 56 -40 -11z"/>
<path fill="#384861" d="M441 656 c2 -79 -7 -120 -18 -88 -5 14 -63 17 -63 3 0 -24 21 -61 34
-61 18 0 96 92 96 113 0 9 9 22 20 30 20 14 19 15 -25 52 l-46 37 2 -86z"/>
<path fill="#384861" d="M703 654 c-3 -8 -1 -20 5 -26 16 -16 42 -2 42 22 0 24 -38 28 -47 4z"/>
<path fill="#384861" d="M513 624 c-3 -8 -1 -20 5 -26 16 -16 42 -2 42 22 0 24 -38 28 -47 4z"/>
<path fill="#384861" d="M575 587 c-4 -13 -5 -46 -2 -73 3 -47 3 -46 5 14 1 34 7 62 12 62 6
0 10 -45 10 -116 0 -102 2 -115 16 -110 9 3 20 6 25 6 5 0 9 52 9 115 0 146
18 154 22 10 l3 -106 33 30 c29 27 32 35 32 89 0 59 -1 60 -32 72 -30 11 -31
13 -13 20 14 6 -1 9 -47 9 -63 1 -68 -1 -73 -22z"/>
<path fill="#384861" d="M489 531 c-29 -34 -33 -46 -35 -102 -1 -39 3 -67 10 -71 6 -4 30 -8
54 -8 l42 0 0 58 c0 52 -2 59 -32 84 -18 14 -30 30 -25 34 4 4 16 -1 27 -11
20 -18 20 -18 20 18 0 49 -20 48 -61 -2z"/>
<path fill="#384861" d="M377 477 c-8 -21 8 -39 29 -35 27 5 25 42 -2 46 -12 2 -24 -3 -27
-11z"/>
<path fill="#384861" d="M421 421 c-9 -6 -11 -16 -6 -31 7 -21 8 -21 17 -6 13 24 6 48 -11 37z"/>
<path fill="#384861" d="M4133 945 c5 -14 49 -13 54 1 2 7 -8 11 -27 10 -16 -1 -28 -5 -27
-11z"/>
<path d="M1206 885 c-4 -24 -11 -47 -17 -50 -12 -8 -12 -45 1 -45 6 0 10 5 10
10 0 15 77 12 83 -2 2 -7 7 -10 11 -6 4 3 3 15 -3 26 -6 12 -11 41 -11 66 0
46 0 46 -34 46 -32 0 -34 -2 -40 -45z m54 -15 c0 -36 -3 -40 -25 -40 -15 0
-23 5 -21 13 3 6 7 24 10 40 10 44 36 34 36 -13z"/>
<path d="M1320 870 l0 -60 35 0 c19 0 35 5 35 10 0 6 -11 10 -25 10 -16 0 -25
6 -25 15 0 8 9 15 20 15 11 0 20 5 20 10 0 6 -9 10 -20 10 -11 0 -20 7 -20 15
0 9 10 15 26 15 14 0 23 4 19 10 -3 6 -19 10 -36 10 -29 0 -29 0 -29 -60z"/>
<path d="M1420 870 c0 -36 4 -60 11 -60 6 0 10 10 9 23 -5 62 -1 77 25 77 23
0 25 -3 25 -50 0 -27 5 -50 10 -50 6 0 10 27 10 60 l0 60 -45 0 -45 0 0 -60z"/>
<path d="M1555 873 c-14 -31 -23 -59 -19 -62 3 -3 10 2 15 12 6 9 21 17 34 17
13 0 28 -8 34 -17 5 -10 12 -15 15 -12 8 8 -34 119 -46 119 -4 0 -20 -25 -33
-57z m45 -4 c0 -5 -7 -9 -15 -9 -9 0 -12 6 -9 15 6 15 24 11 24 -6z"/>
<path d="M1669 925 c0 -3 -1 -21 -1 -40 0 -65 2 -75 12 -75 6 0 10 8 10 18 0
9 10 22 22 27 44 19 30 75 -18 75 -13 0 -24 -2 -25 -5z m47 -26 c8 -14 -11
-33 -25 -25 -11 7 -4 36 9 36 5 0 12 -5 16 -11z"/>
<path d="M1750 920 c0 -5 9 -10 20 -10 17 0 20 -7 20 -50 0 -27 5 -50 10 -50
6 0 10 23 10 50 0 43 3 50 20 50 11 0 20 5 20 10 0 6 -22 10 -50 10 -27 0 -50
-4 -50 -10z"/>
<path d="M1868 873 c-26 -58 -27 -83 -4 -50 16 21 62 23 70 2 3 -8 10 -15 15
-15 12 0 -33 113 -47 118 -5 1 -20 -23 -34 -55z m42 2 c0 -8 -4 -15 -10 -15
-5 0 -10 7 -10 15 0 8 5 15 10 15 6 0 10 -7 10 -15z"/>
<path d="M1980 870 c0 -33 4 -60 10 -60 6 0 10 19 10 43 l0 42 18 -27 18 -28
22 28 21 27 0 -42 c1 -24 6 -43 11 -43 6 0 10 27 10 60 0 33 -4 60 -9 60 -5 0
-19 -12 -31 -27 l-22 -28 -22 28 c-12 15 -25 27 -29 27 -4 0 -7 -27 -7 -60z"/>
<path d="M2130 870 l0 -60 35 0 c19 0 35 5 35 10 0 6 -11 10 -25 10 -16 0 -25
6 -25 15 0 8 9 15 20 15 11 0 20 5 20 10 0 6 -9 10 -20 10 -11 0 -20 7 -20 15
0 9 9 15 25 15 14 0 25 5 25 10 0 6 -16 10 -35 10 l-35 0 0 -60z"/>
<path d="M2230 870 c0 -33 4 -60 10 -60 6 0 10 11 10 25 0 20 5 25 25 25 20 0
25 -5 25 -25 0 -14 5 -25 10 -25 6 0 10 27 10 60 0 33 -4 60 -10 60 -5 0 -10
-11 -10 -25 0 -20 -5 -25 -25 -25 -20 0 -25 5 -25 25 0 14 -4 25 -10 25 -6 0
-10 -27 -10 -60z"/>
<path d="M2340 920 c0 -5 9 -10 20 -10 17 0 20 -7 20 -50 0 -27 5 -50 10 -50
6 0 10 23 10 50 0 43 3 50 20 50 11 0 20 5 20 10 0 6 -22 10 -50 10 -27 0 -50
-4 -50 -10z"/>
<path d="M2499 923 c-7 -35 -2 -113 6 -113 6 0 21 16 34 35 26 38 43 45 40 18
-3 -31 1 -53 9 -53 9 0 12 44 5 90 l-5 35 -38 -45 -38 -44 3 37 c2 20 -1 39
-6 43 -5 3 -10 2 -10 -3z"/>
<path d="M2630 870 c0 -33 4 -60 10 -60 6 0 10 11 10 25 0 20 5 25 25 25 20 0
25 -5 25 -25 0 -14 5 -25 10 -25 6 0 10 27 10 60 0 33 -4 60 -10 60 -5 0 -10
-11 -10 -25 0 -20 -5 -25 -25 -25 -20 0 -25 5 -25 25 0 14 -4 25 -10 25 -6 0
-10 -27 -10 -60z"/>
<path d="M2760 869 l0 -60 33 3 c31 3 32 5 34 48 1 52 -10 70 -43 70 -23 0
-24 -3 -24 -61z m48 23 c2 -7 -3 -12 -12 -12 -9 0 -16 7 -16 16 0 17 22 14 28
-4z m2 -47 c0 -8 -7 -15 -15 -15 -8 0 -15 7 -15 15 0 8 7 15 15 15 8 0 15 -7
15 -15z"/>
<path d="M2860 870 l0 -60 35 0 c19 0 35 5 35 10 0 6 -11 10 -25 10 -16 0 -25
6 -25 15 0 9 10 15 26 15 14 0 23 4 19 10 -3 6 -15 10 -26 10 -10 0 -19 7 -19
15 0 9 9 15 25 15 14 0 25 5 25 10 0 6 -16 10 -35 10 l-35 0 0 -60z"/>
<path d="M2970 910 c-24 -24 -25 -48 -4 -78 16 -23 67 -31 79 -12 4 6 -6 10
-23 10 -41 0 -58 23 -43 56 8 17 18 25 34 24 35 -3 43 0 27 10 -24 15 -48 12
-70 -10z"/>
<path d="M3060 920 c0 -5 9 -10 20 -10 17 0 20 -7 20 -50 0 -27 4 -50 8 -50 4
0 7 21 7 46 -2 38 2 48 16 51 35 10 19 23 -26 23 -25 0 -45 -4 -45 -10z"/>
<path d="M3170 870 c0 -71 13 -77 50 -22 l25 37 3 -37 c5 -61 22 -44 22 22 0
33 -3 60 -7 60 -5 -1 -21 -20 -38 -43 l-30 -42 -3 43 c-5 64 -22 50 -22 -18z"/>
<path d="M3310 870 l0 -60 44 0 c26 0 46 -5 49 -12 2 -7 8 -9 13 -5 4 4 3 17
-4 27 -7 11 -12 40 -12 65 0 25 -4 45 -10 45 -5 0 -10 -22 -10 -50 0 -47 -2
-50 -25 -50 -23 0 -25 3 -25 50 0 28 -4 50 -10 50 -6 0 -10 -27 -10 -60z"/>
<path d="M3440 870 c0 -33 4 -60 9 -60 4 0 21 19 37 42 l29 42 3 -42 c5 -64
22 -50 22 18 0 33 -4 60 -9 60 -4 0 -21 -19 -37 -42 l-29 -42 -3 42 c-5 64
-22 50 -22 -18z"/>
<path d="M3581 904 c-36 -46 -9 -97 48 -92 26 2 39 10 50 30 14 25 14 29 -5
55 -29 39 -66 41 -93 7z m67 -3 c8 -5 12 -21 10 -37 -4 -35 -44 -47 -65 -18
-17 23 -16 29 3 48 17 18 32 20 52 7z"/>
<path d="M3710 870 c0 -33 4 -60 10 -60 6 0 10 11 10 25 0 21 5 25 30 25 25 0
30 -4 30 -25 0 -14 5 -25 10 -25 6 0 10 27 10 60 0 33 -4 60 -10 60 -5 0 -10
-11 -10 -25 0 -21 -5 -25 -30 -25 -25 0 -30 4 -30 25 0 14 -4 25 -10 25 -6 0
-10 -27 -10 -60z"/>
<path d="M3840 870 c0 -33 4 -60 10 -60 6 0 10 11 10 25 0 20 5 25 25 25 20 0
25 -5 25 -25 0 -14 5 -25 10 -25 6 0 10 27 10 61 0 37 -4 58 -10 54 -5 -3 -10
-15 -10 -26 0 -14 -7 -19 -25 -19 -20 0 -25 5 -25 25 0 14 -4 25 -10 25 -6 0
-10 -27 -10 -60z"/>
<path d="M3980 910 c-39 -39 -14 -100 43 -100 55 0 79 73 35 104 -30 21 -54
20 -78 -4z m70 -14 c6 -8 10 -25 8 -38 -6 -42 -78 -32 -78 11 0 37 46 55 70
27z"/>
<path d="M4110 870 c0 -33 4 -60 9 -60 4 0 21 19 37 42 l29 42 3 -42 c5 -64
22 -50 22 18 0 33 -4 60 -9 60 -5 0 -23 -19 -40 -42 l-31 -42 0 42 c0 23 -4
42 -10 42 -6 0 -10 -27 -10 -60z"/>
<path d="M2836 719 c7 -11 51 -12 58 -1 3 4 -11 9 -30 9 -18 1 -31 -3 -28 -8z"/>
<path d="M1190 640 c0 -33 4 -60 9 -60 4 0 21 19 37 43 l29 42 3 -37 c5 -58
22 -45 22 17 0 30 -4 55 -9 55 -5 0 -23 -17 -40 -37 l-30 -38 -1 38 c0 20 -4
37 -10 37 -6 0 -10 -27 -10 -60z"/>
<path d="M1360 645 c0 -30 5 -55 10 -55 6 0 10 20 10 45 0 41 2 45 25 45 25 0
31 -17 26 -72 -1 -9 3 -19 9 -23 6 -4 10 15 10 54 l0 61 -45 0 -45 0 0 -55z"/>
<path d="M1490 639 c0 -37 4 -58 10 -54 6 3 10 15 10 25 0 11 8 20 21 22 55 8
44 68 -12 68 -29 0 -29 -1 -29 -61z m44 14 c-21 -15 -30 -3 -20 23 5 14 9 14
22 3 14 -12 14 -14 -2 -26z"/>
<path d="M1594 675 c-34 -52 29 -115 81 -81 28 18 35 72 13 94 -22 22 -76 15
-94 -13z m67 5 c39 -22 13 -89 -30 -75 -27 8 -34 34 -16 61 18 27 19 28 46 14z"/>
<path d="M1730 645 c0 -30 5 -55 10 -55 6 0 10 17 10 38 l1 37 19 -24 20 -23
20 23 19 24 1 -43 c0 -26 4 -41 10 -37 6 3 10 31 10 61 0 61 -17 72 -41 28
l-13 -26 -23 26 c-33 39 -43 32 -43 -29z"/>
<path d="M1880 646 c0 -60 7 -70 44 -60 45 11 45 74 0 74 -17 0 -24 6 -24 20
0 11 -4 20 -10 20 -5 0 -10 -24 -10 -54z m60 -20 c0 -15 -24 -28 -34 -19 -13
14 -5 33 14 33 11 0 20 -6 20 -14z"/>
<path d="M1973 645 c4 -53 16 -87 18 -52 6 76 3 107 -9 107 -9 0 -12 -15 -9
-55z"/>
<path d="M2030 646 c0 -60 3 -62 80 -61 l45 0 3 58 c2 35 -1 57 -8 57 -5 0
-10 -22 -10 -50 0 -38 -4 -50 -15 -50 -11 0 -15 12 -15 50 0 64 -18 66 -22 3
-2 -36 -7 -49 -20 -51 -15 -3 -18 4 -18 47 0 28 -4 51 -10 51 -5 0 -10 -24
-10 -54z"/>
<path d="M2207 663 c-3 -21 -8 -49 -13 -63 -7 -23 -6 -24 9 -11 10 7 20 31 23
52 5 29 11 39 25 39 16 0 19 -8 19 -51 0 -31 4 -48 10 -44 6 3 10 31 10 61 l0
54 -39 0 c-37 0 -39 -1 -44 -37z"/>
<path d="M2320 645 c0 -37 4 -55 13 -56 6 0 22 -2 35 -5 12 -2 22 1 22 6 0 6
-12 10 -26 10 -19 0 -25 4 -22 18 2 9 11 17 20 17 9 0 20 4 24 8 4 4 -5 7 -19
7 -17 0 -27 5 -27 15 0 8 5 16 10 16 6 1 14 2 19 3 28 4 19 16 -12 16 l-37 0
0 -55z"/>
<path d="M2420 640 c0 -60 16 -84 22 -32 2 20 9 27 26 28 17 1 22 -4 22 -22 0
-12 5 -26 10 -29 6 -4 10 17 10 54 0 34 -4 61 -10 61 -5 0 -10 -11 -10 -25 0
-20 -5 -25 -25 -25 -20 0 -25 5 -25 25 0 14 -4 25 -10 25 -6 0 -10 -27 -10
-60z"/>
<path d="M2550 638 c0 -58 13 -72 22 -23 2 12 11 20 23 20 12 0 21 -8 23 -20
9 -49 22 -35 22 23 0 35 -4 62 -10 62 -5 0 -10 -11 -10 -25 0 -20 -5 -25 -25
-25 -20 0 -25 5 -25 25 0 14 -4 25 -10 25 -6 0 -10 -27 -10 -62z"/>
<path d="M2686 684 c-25 -24 -20 -71 9 -90 59 -38 129 42 77 89 -23 21 -66 22
-86 1z m76 -18 c15 -22 8 -47 -17 -58 -30 -14 -55 3 -55 38 0 38 50 52 72 20z"/>
<path d="M2815 646 c0 -30 3 -58 7 -61 4 -4 19 11 35 34 34 49 45 51 42 9 -2
-18 1 -33 6 -33 4 0 9 24 9 53 2 62 -13 68 -44 17 -12 -19 -25 -35 -29 -35 -4
0 -6 16 -6 35 1 19 -3 35 -9 35 -7 0 -11 -22 -11 -54z"/>
<path d="M2990 639 c0 -37 4 -58 10 -54 6 3 10 26 10 49 0 35 4 45 19 49 27 7
31 0 31 -50 0 -23 5 -43 10 -43 6 0 10 25 10 55 l0 55 -45 0 -45 0 0 -61z"/>
<path d="M3120 685 c-20 -24 -15 -67 10 -87 30 -24 52 -23 78 5 26 28 27 45 6
75 -18 26 -75 30 -94 7z m74 -14 c21 -24 14 -57 -15 -66 -39 -13 -67 43 -37
73 17 17 32 15 52 -7z"/>
<path d="M3257 663 c-3 -21 -8 -49 -12 -63 l-7 -25 21 24 c12 13 21 36 21 52
0 22 5 29 20 29 17 0 20 -7 20 -45 0 -25 5 -45 10 -45 6 0 10 25 10 55 l0 55
-39 0 c-37 0 -39 -1 -44 -37z"/>
<path d="M3370 646 c0 -30 4 -57 9 -60 5 -3 21 13 37 36 l29 42 3 -35 c6 -62
22 -56 22 9 0 34 -4 62 -10 62 -5 0 -20 -16 -32 -35 -29 -44 -38 -44 -38 0 0
19 -4 35 -10 35 -5 0 -10 -24 -10 -54z"/>
<path d="M3495 690 c3 -5 13 -10 21 -10 10 0 14 -13 14 -50 0 -27 5 -50 10
-50 6 0 10 23 10 50 0 37 4 50 14 50 8 0 18 5 21 10 4 6 -13 10 -45 10 -32 0
-49 -4 -45 -10z"/>
<path d="M3610 640 c0 -33 3 -60 8 -60 4 0 21 19 37 43 l30 42 3 -43 c4 -60
22 -42 22 24 0 65 -14 70 -50 16 l-25 -37 -3 38 c-5 60 -22 43 -22 -23z"/>
<path d="M3740 646 c0 -30 5 -58 10 -61 6 -4 10 7 10 27 l0 33 31 -33 c38 -40
50 -35 18 7 l-23 31 24 25 c13 14 18 25 11 25 -6 0 -23 -12 -36 -27 l-24 -28
-1 28 c0 15 -4 27 -10 27 -5 0 -10 -24 -10 -54z"/>
<path d="M3860 638 l1 -63 39 45 39 45 1 -43 c0 -26 4 -41 10 -37 6 3 10 31
10 61 0 66 -17 72 -52 17 l-23 -38 -3 38 c-5 61 -22 42 -22 -25z"/>
<path fill="#0d0d0d" d="M1190 419 c0 -44 3 -60 13 -57 6 3 13 23 15 45 2 31 8 42 24 46 28 8
13 27 -23 27 -29 0 -29 0 -29 -61z"/>
<path fill="#0d0d0d" d="M1285 466 c-11 -8 -18 -26 -18 -46 0 -37 23 -60 60 -60 28 0 63 33
63 60 0 47 -65 76 -105 46z m75 -45 c0 -29 -25 -45 -49 -31 -25 13 -27 45 -4
59 23 12 53 -4 53 -28z"/>
<path fill="#0d0d0d" d="M1417 473 c-4 -3 -7 -30 -7 -60 0 -40 4 -53 15 -53 8 0 15 9 15 20 0
13 7 20 20 20 24 0 38 44 20 65 -13 15 -51 20 -63 8z m48 -33 c3 -5 -1 -10 -9
-10 -9 0 -16 5 -16 10 0 6 4 10 9 10 6 0 13 -4 16 -10z"/>
<path fill="#0d0d0d" d="M1532 464 c-45 -31 -17 -104 41 -104 33 0 57 24 57 59 0 52 -53 77
-98 45z m72 -29 c13 -34 -24 -66 -50 -44 -15 12 -19 41 -7 52 12 13 51 7 57
-8z"/>
<path fill="#0d0d0d" d="M1670 453 c0 -16 -7 -41 -15 -57 -8 -15 -15 -35 -15 -42 0 -16 16
-19 25 -4 9 14 72 12 78 -2 11 -31 16 4 10 65 l-6 67 -38 0 c-36 0 -39 -2 -39
-27z m50 -38 c0 -24 -5 -35 -15 -35 -15 0 -22 50 -8 63 15 15 23 5 23 -28z"/>
<path fill="#0d0d0d" d="M1795 425 c-14 -32 -25 -59 -25 -61 0 -11 29 -2 33 10 6 15 47 11 58
-7 4 -5 11 -8 17 -6 13 5 -29 111 -46 117 -6 2 -23 -21 -37 -53z m45 -5 c0 -5
-4 -10 -10 -10 -5 0 -10 5 -10 10 0 6 5 10 10 10 6 0 10 -4 10 -10z"/>
<path fill="#0d0d0d"  d="M1940 420 c0 -47 3 -60 15 -60 10 0 15 10 15 32 0 30 1 30 19 14 17
-16 19 -15 34 6 16 23 16 23 16 -14 1 -21 6 -38 11 -38 6 0 10 27 10 60 0 33
-4 60 -9 60 -5 0 -18 -12 -29 -27 l-19 -26 -18 26 c-30 46 -45 35 -45 -33z"/>
<path fill="#0d0d0d" d="M2112 464 c-45 -31 -17 -104 40 -104 53 0 79 74 36 104 -12 9 -29 16
-38 16 -9 0 -26 -7 -38 -16z m68 -48 c0 -26 -21 -39 -45 -30 -18 7 -20 60 -2
67 21 8 47 -13 47 -37z"/>
<path fill="#0d0d0d" d="M2247 462 c-21 -23 -22 -66 -1 -86 21 -21 74 -21 74 0 0 11 -6 13
-19 9 -18 -5 -51 17 -51 35 0 19 33 40 52 34 15 -4 19 -2 16 7 -7 22 -52 22
-71 1z"/>
<path fill="#0d0d0d" d="M2350 420 c0 -33 4 -60 10 -60 6 0 10 12 10 28 l1 27 22 -27 c13 -16
28 -28 35 -28 17 0 15 8 -8 37 -20 25 -20 25 1 51 15 19 17 28 8 31 -7 2 -23
-9 -36 -25 l-23 -29 0 28 c0 15 -4 27 -10 27 -6 0 -10 -27 -10 -60z"/>
<path fill="#0d0d0d" d="M2467 473 c-4 -3 -7 -30 -7 -60 0 -51 1 -53 28 -53 15 0 32 4 39 8
12 8 12 79 0 100 -9 13 -49 17 -60 5z m43 -33 c0 -5 -4 -10 -10 -10 -5 0 -10
5 -10 10 0 6 5 10 10 10 6 0 10 -4 10 -10z m5 -40 c3 -5 -1 -10 -9 -10 -9 0
-16 5 -16 10 0 6 4 10 9 10 6 0 13 -4 16 -10z"/>
<path fill="#0d0d0d" d="M2570 421 c0 -57 2 -61 23 -61 57 0 75 53 27 77 -14 7 -25 18 -25 24
0 7 -6 14 -12 17 -10 3 -13 -13 -13 -57z m45 -31 c-5 -8 -11 -8 -17 -2 -6 6
-7 16 -3 22 5 8 11 8 17 2 6 -6 7 -16 3 -22z"/>
<path fill="#0d0d0d" d="M2660 421 c0 -48 3 -61 15 -61 13 0 15 11 13 57 -4 81 -28 85 -28 4z"/>
</g>
</svg>
